<svg width="16" height="17" viewBox="0 0 16 17" fill="none" xmlns="http://www.w3.org/2000/svg">
<path d="M15.1582 8.0506L11.8152 7.76112L11.7783 7.57034L14.7696 5.95849C14.8549 5.91296 14.9212 5.8351 14.9554 5.74017C14.9896 5.64523 14.9894 5.54007 14.9547 5.44533C14.9188 5.35044 14.8503 5.27376 14.7631 5.23096C14.676 5.18816 14.5768 5.18248 14.4859 5.21507L11.2849 6.27428C11.2417 6.20192 11.1986 6.12297 11.1554 6.05718L13.3203 3.32691C13.3858 3.25453 13.4224 3.15783 13.4224 3.05718C13.4224 2.95653 13.3858 2.85982 13.3203 2.78744C13.2514 2.71707 13.1597 2.67779 13.0643 2.67779C12.9689 2.67779 12.8772 2.71707 12.8083 2.78744L10.2548 5.09665L10.1006 4.99139L11.1492 1.59007C11.1784 1.49475 11.173 1.39124 11.1342 1.29992C11.0953 1.2086 11.0259 1.13608 10.9395 1.09665C10.8532 1.05497 10.7552 1.05016 10.6657 1.0832C10.5762 1.11625 10.502 1.18463 10.4584 1.27428L8.89789 4.44534L8.62655 4.35981L8.34903 0.79402C8.34127 0.693385 8.29815 0.599564 8.22842 0.531278C8.15868 0.462991 8.0674 0.425261 7.97273 0.4256C7.87848 0.426751 7.78799 0.464987 7.71855 0.532984C7.64912 0.600981 7.6057 0.693945 7.59659 0.79402L7.31892 4.35981L7.14018 4.39271L5.62896 1.20191C5.58523 1.11213 5.51187 1.04289 5.42297 1.00763C5.33406 0.972376 5.2361 0.973624 5.14801 1.01113C5.06046 1.04936 4.98955 1.12137 4.94954 1.21281C4.90954 1.30426 4.90331 1.40842 4.93208 1.50455L5.92515 4.9256L5.72157 5.06376L3.16804 2.75454C3.09845 2.68564 3.00714 2.64736 2.9122 2.64736C2.81726 2.64736 2.7258 2.68564 2.65621 2.75454C2.59064 2.82692 2.55397 2.92363 2.55397 3.02428C2.55397 3.12493 2.59064 3.22165 2.65621 3.29402L4.82727 6.02428C4.78883 6.07648 4.75369 6.13143 4.72232 6.18876L1.53982 5.06376C1.4488 5.0343 1.3508 5.04146 1.26441 5.0839C1.17802 5.12634 1.10923 5.20109 1.07106 5.29402C1.03397 5.38703 1.03122 5.49155 1.06323 5.58669C1.09525 5.68182 1.1597 5.76056 1.24378 5.80718L4.21667 7.47165C4.19167 7.55542 4.17305 7.64123 4.16111 7.72823L0.818239 8.0177C0.723892 8.02895 0.636577 8.07665 0.572944 8.1518C0.509312 8.22695 0.473728 8.32434 0.472809 8.42559C0.473887 8.52613 0.509649 8.62271 0.573396 8.69678C0.637143 8.77085 0.724418 8.81719 0.818239 8.82691L4.16111 9.11639L4.19815 9.31376L1.20673 10.9256C1.12095 10.9686 1.05432 11.0455 1.02092 11.1401C0.987516 11.2347 0.989945 11.3395 1.02785 11.4322C1.06254 11.5268 1.12962 11.6038 1.21547 11.6478C1.30131 11.6917 1.39954 11.6993 1.49043 11.669L4.6916 10.6032C4.73178 10.6791 4.77711 10.7516 4.82727 10.8203L2.65621 13.5506C2.59162 13.6248 2.55563 13.7223 2.55563 13.8236C2.55563 13.9249 2.59162 14.0224 2.65621 14.0967C2.72645 14.1642 2.81766 14.2015 2.9122 14.2015C3.00674 14.2015 3.0978 14.1642 3.16804 14.0967L5.72157 11.7809L5.87576 11.8927L4.82727 15.2874C4.79782 15.3837 4.80297 15.4882 4.84173 15.5806C4.88049 15.673 4.94999 15.7467 5.03688 15.7874C5.12408 15.827 5.22205 15.83 5.31124 15.7959C5.40042 15.7617 5.47428 15.6929 5.51798 15.6032L7.07844 12.4322C7.1573 12.456 7.23763 12.4736 7.31892 12.4848L7.59659 16.0506C7.60426 16.1519 7.64701 16.2464 7.7166 16.3158C7.78618 16.3851 7.8775 16.4243 7.97273 16.4256C8.06839 16.4258 8.16049 16.3872 8.23038 16.3175C8.30026 16.2479 8.34276 16.1524 8.34903 16.0506L8.62655 12.4848L8.80544 12.4519L10.3165 15.6427C10.3592 15.7336 10.4325 15.8038 10.5217 15.8392C10.611 15.8746 10.7097 15.8726 10.7976 15.8335C10.8861 15.7965 10.9578 15.7247 10.998 15.6328C11.0382 15.541 11.0438 15.4362 11.0135 15.3401L10.0205 11.9256L10.2241 11.7809L12.7774 14.0967C12.847 14.1656 12.9385 14.2038 13.0334 14.2038C13.1284 14.2038 13.2198 14.1656 13.2894 14.0967C13.354 14.0224 13.3898 13.9249 13.3898 13.8236C13.3898 13.7223 13.354 13.6248 13.2894 13.5506L11.1245 10.8203L11.2231 10.6624L14.4118 11.7809C14.5019 11.8132 14.6002 11.8073 14.6863 11.7644C14.7724 11.7216 14.8398 11.645 14.8744 11.5506C14.9115 11.4576 14.9144 11.3531 14.8824 11.2579C14.8504 11.1628 14.7859 11.0841 14.7018 11.0374L11.7351 9.37955C11.7351 9.29402 11.7722 9.20849 11.7845 9.11639L15.1274 8.82691C15.2212 8.81719 15.3083 8.77085 15.3721 8.69678C15.4358 8.62271 15.4717 8.52613 15.4728 8.42559C15.4662 8.33494 15.4318 8.24912 15.3749 8.18135C15.3181 8.11359 15.242 8.06765 15.1582 8.0506ZM8.00978 10.3138C7.54898 10.312 7.10748 10.116 6.78165 9.76845C6.45582 9.42089 6.27205 8.95 6.27043 8.45849C6.27043 7.96644 6.45366 7.49456 6.77984 7.14663C7.10602 6.7987 7.54848 6.60323 8.00978 6.60323C8.47107 6.60323 8.91353 6.7987 9.23971 7.14663C9.56589 7.49456 9.74912 7.96644 9.74912 8.45849C9.74912 8.95054 9.56589 9.42244 9.23971 9.77036C8.91353 10.1183 8.47107 10.3138 8.00978 10.3138Z" fill="#296399"/>
</svg>
