<svg width="20" height="15" viewBox="0 0 20 15" fill="none" xmlns="http://www.w3.org/2000/svg">
<path d="M4.36092 14.6016C3.28635 14.6002 2.2532 14.187 1.47405 13.4469C0.694902 12.7069 0.229033 11.6964 0.172304 10.6233C0.115576 9.55027 0.472304 8.49627 1.16909 7.67822C1.86587 6.86017 2.84969 6.34031 3.91812 6.22561C3.60352 4.99188 3.79191 3.6837 4.44184 2.58886C5.09176 1.49402 6.14999 0.70221 7.38372 0.387611C8.61746 0.0730108 9.92564 0.261395 11.0205 0.911321C12.1153 1.56125 12.9071 2.61948 13.2217 3.85321C13.9555 3.75105 14.7024 3.80095 15.416 3.99981C16.1296 4.19867 16.7947 4.54224 17.3698 5.00915C17.945 5.47606 18.4179 6.05631 18.7592 6.71383C19.1005 7.37134 19.3029 8.09204 19.3537 8.83111C19.4045 9.57018 19.3027 10.3118 19.0547 11.0098C18.8066 11.7079 18.4176 12.3474 17.9117 12.8887C17.4059 13.4299 16.7941 13.8613 16.1145 14.156C15.4348 14.4507 14.7017 14.6024 13.9609 14.6016H4.36092Z" fill="#296399"/>
</svg>
