<svg width="272" height="266" viewBox="0 0 272 266" fill="none" xmlns="http://www.w3.org/2000/svg">
<g filter="url(#filter0_bdd_2_474)">
<mask id="path-1-inside-1_2_474" fill="white">
<path d="M233.701 119.5C233.701 164.291 197.391 200.6 152.6 200.6C107.81 200.6 71.5 164.291 71.5 119.5C71.5 74.7095 107.81 38.3997 152.6 38.3997C197.391 38.3997 233.701 74.7095 233.701 119.5Z"/>
</mask>
<path d="M233.701 119.5C233.701 164.291 197.391 200.6 152.6 200.6C107.81 200.6 71.5 164.291 71.5 119.5C71.5 74.7095 107.81 38.3997 152.6 38.3997C197.391 38.3997 233.701 74.7095 233.701 119.5Z" fill="url(#paint0_linear_2_474)"/>
<path d="M231.701 119.5C231.701 163.186 196.286 198.6 152.6 198.6V202.6C198.495 202.6 235.701 165.395 235.701 119.5H231.701ZM152.6 198.6C108.914 198.6 73.5 163.186 73.5 119.5H69.5C69.5 165.395 106.705 202.6 152.6 202.6V198.6ZM73.5 119.5C73.5 75.8141 108.914 40.3997 152.6 40.3997V36.3997C106.705 36.3997 69.5 73.605 69.5 119.5H73.5ZM152.6 40.3997C196.286 40.3997 231.701 75.8141 231.701 119.5H235.701C235.701 73.605 198.495 36.3997 152.6 36.3997V40.3997Z" fill="url(#paint1_linear_2_474)" mask="url(#path-1-inside-1_2_474)"/>
</g>
<defs>
<filter id="filter0_bdd_2_474" x="0.5" y="0.399658" width="271.201" height="265.201" filterUnits="userSpaceOnUse" color-interpolation-filters="sRGB">
<feFlood flood-opacity="0" result="BackgroundImageFix"/>
<feGaussianBlur in="BackgroundImageFix" stdDeviation="7"/>
<feComposite in2="SourceAlpha" operator="in" result="effect1_backgroundBlur_2_474"/>
<feColorMatrix in="SourceAlpha" type="matrix" values="0 0 0 0 0 0 0 0 0 0 0 0 0 0 0 0 0 0 127 0" result="hardAlpha"/>
<feOffset dx="-21" dy="15"/>
<feGaussianBlur stdDeviation="25"/>
<feComposite in2="hardAlpha" operator="out"/>
<feColorMatrix type="matrix" values="0 0 0 0 0.113438 0 0 0 0 0.148981 0 0 0 0 0.275 0 0 0 0.25 0"/>
<feBlend mode="normal" in2="effect1_backgroundBlur_2_474" result="effect2_dropShadow_2_474"/>
<feColorMatrix in="SourceAlpha" type="matrix" values="0 0 0 0 0 0 0 0 0 0 0 0 0 0 0 0 0 0 127 0" result="hardAlpha"/>
<feOffset/>
<feGaussianBlur stdDeviation="19"/>
<feComposite in2="hardAlpha" operator="out"/>
<feColorMatrix type="matrix" values="0 0 0 0 0.619608 0 0 0 0 0.423529 0 0 0 0 1 0 0 0 0.4 0"/>
<feBlend mode="normal" in2="effect2_dropShadow_2_474" result="effect3_dropShadow_2_474"/>
<feBlend mode="normal" in="SourceGraphic" in2="effect3_dropShadow_2_474" result="shape"/>
</filter>
<linearGradient id="paint0_linear_2_474" x1="148.918" y1="39.8284" x2="148.918" y2="202.029" gradientUnits="userSpaceOnUse">
<stop offset="0.0001" stop-color="#DECFFF"/>
<stop offset="1" stop-color="#7E2FFF"/>
</linearGradient>
<linearGradient id="paint1_linear_2_474" x1="202.055" y1="-27.0053" x2="164.11" y2="165.931" gradientUnits="userSpaceOnUse">
<stop stop-color="white"/>
<stop offset="1" stop-color="white" stop-opacity="0"/>
</linearGradient>
</defs>
</svg>
