<svg width="404" height="349" viewBox="0 0 404 349" fill="none" xmlns="http://www.w3.org/2000/svg">
<circle cx="244" cy="59" r="57.5" fill="url(#paint0_linear_2_276)" stroke="url(#paint1_linear_2_276)" stroke-width="3"/>
<mask id="mask0_2_276" style="mask-type:alpha" maskUnits="userSpaceOnUse" x="185" y="33" width="118" height="85">
<path d="M303 59C303 91.5848 276.585 118 244 118C211.415 118 185 91.5848 185 59C185 26.4152 206.915 34 239.5 34C272.085 34 303 26.4152 303 59Z" fill="url(#paint2_linear_2_276)"/>
</mask>
<g mask="url(#mask0_2_276)">
<g filter="url(#filter0_f_2_276)">
<path fill-rule="evenodd" clip-rule="evenodd" d="M290.5 209.997C290.666 209.999 290.833 210 291 210C314.748 210 334 190.748 334 167C334 143.252 314.748 124 291 124C290.833 124 290.666 124.001 290.5 124.003V124H263.087C263.688 120.423 264 116.748 264 113C264 76.5492 234.451 47 198 47C161.549 47 132 76.5492 132 113C132 116.894 132.337 120.709 132.984 124.418C112.084 127.343 96 145.293 96 167C96 190.748 115.252 210 139 210C139.168 210 139.335 209.999 139.502 209.997L139.5 210H290.5V209.997Z" fill="#E18700"/>
</g>
</g>
<g filter="url(#filter1_bd_2_276)">
<mask id="path-4-inside-1_2_276" fill="white">
<path fill-rule="evenodd" clip-rule="evenodd" d="M265.5 214.997C265.666 214.999 265.833 215 266 215C289.748 215 309 195.748 309 172C309 148.252 289.748 129 266 129C265.833 129 265.666 129.001 265.5 129.003V129H254.391C254.793 126.057 255 123.053 255 120C255 83.5492 225.451 54 189 54C152.549 54 123 83.5492 123 120C123 123.439 123.263 126.817 123.77 130.115C120.631 129.386 117.361 129 114 129C90.2518 129 71 148.252 71 172C71 195.748 90.2518 215 114 215C114.168 215 114.335 214.999 114.502 214.997L114.5 215H265.5V214.997Z"/>
</mask>
<path fill-rule="evenodd" clip-rule="evenodd" d="M265.5 214.997C265.666 214.999 265.833 215 266 215C289.748 215 309 195.748 309 172C309 148.252 289.748 129 266 129C265.833 129 265.666 129.001 265.5 129.003V129H254.391C254.793 126.057 255 123.053 255 120C255 83.5492 225.451 54 189 54C152.549 54 123 83.5492 123 120C123 123.439 123.263 126.817 123.77 130.115C120.631 129.386 117.361 129 114 129C90.2518 129 71 148.252 71 172C71 195.748 90.2518 215 114 215C114.168 215 114.335 214.999 114.502 214.997L114.5 215H265.5V214.997Z" fill="url(#paint3_linear_2_276)" shape-rendering="crispEdges"/>
<path d="M265.5 214.997L265.534 211.997C264.733 211.988 263.961 212.3 263.391 212.864C262.821 213.427 262.5 214.196 262.5 214.997H265.5ZM265.5 129.003H262.5C262.5 129.804 262.821 130.573 263.391 131.136C263.961 131.7 264.733 132.012 265.534 132.003L265.5 129.003ZM265.5 129H268.5C268.5 127.343 267.157 126 265.5 126V129ZM254.391 129L251.419 128.595C251.302 129.453 251.562 130.32 252.131 130.973C252.701 131.625 253.525 132 254.391 132V129ZM123.77 130.115L123.091 133.037C124.061 133.262 125.08 132.992 125.81 132.315C126.54 131.638 126.887 130.643 126.735 129.659L123.77 130.115ZM114.502 214.997L116.856 216.857C117.573 215.95 117.705 214.711 117.195 213.674C116.685 212.636 115.624 211.984 114.468 211.997L114.502 214.997ZM114.5 215L112.146 213.14C111.433 214.043 111.299 215.273 111.8 216.308C112.301 217.343 113.35 218 114.5 218V215ZM265.5 215V218C267.157 218 268.5 216.657 268.5 215H265.5ZM265.466 217.997C265.644 217.999 265.822 218 266 218V212C265.845 212 265.689 211.999 265.534 211.997L265.466 217.997ZM266 218C291.405 218 312 197.405 312 172H306C306 194.091 288.091 212 266 212V218ZM312 172C312 146.595 291.405 126 266 126V132C288.091 132 306 149.909 306 172H312ZM266 126C265.822 126 265.644 126.001 265.466 126.003L265.534 132.003C265.689 132.001 265.844 132 266 132V126ZM262.5 129V129.003H268.5V129H262.5ZM254.391 132H265.5V126H254.391V132ZM257.364 129.405C257.783 126.329 258 123.189 258 120H252C252 122.917 251.802 125.786 251.419 128.595L257.364 129.405ZM258 120C258 81.8924 227.108 51 189 51V57C223.794 57 252 85.2061 252 120H258ZM189 51C150.892 51 120 81.8924 120 120H126C126 85.2061 154.206 57 189 57V51ZM120 120C120 123.593 120.275 127.123 120.805 130.571L126.735 129.659C126.251 126.512 126 123.286 126 120H120ZM124.449 127.193C121.089 126.412 117.591 126 114 126V132C117.131 132 120.174 132.359 123.091 133.037L124.449 127.193ZM114 126C88.5949 126 68 146.595 68 172H74C74 149.909 91.9086 132 114 132V126ZM68 172C68 197.405 88.5949 218 114 218V212C91.9086 212 74 194.091 74 172H68ZM114 218C114.179 218 114.358 217.999 114.536 217.997L114.468 211.997C114.312 211.999 114.156 212 114 212V218ZM116.854 216.86L116.856 216.857L112.148 213.138L112.146 213.14L116.854 216.86ZM265.5 212H114.5V218H265.5V212ZM262.5 214.997V215H268.5V214.997H262.5Z" fill="url(#paint4_linear_2_276)" mask="url(#path-4-inside-1_2_276)"/>
</g>
<g filter="url(#filter2_bd_2_276)">
<mask id="path-6-inside-2_2_276" fill="white">
<path fill-rule="evenodd" clip-rule="evenodd" d="M343.563 170.351C343.683 170.352 343.804 170.353 343.924 170.353C361.087 170.353 375 156.44 375 139.277C375 122.115 361.087 108.202 343.924 108.202C343.804 108.202 343.683 108.202 343.563 108.204V108.202H335.535C335.825 106.075 335.975 103.904 335.975 101.697C335.975 75.3549 314.62 54 288.277 54C261.935 54 240.58 75.3549 240.58 101.697C240.58 104.183 240.77 106.624 241.136 109.007C238.868 108.48 236.504 108.202 234.076 108.202C216.913 108.202 203 122.115 203 139.277C203 156.44 216.913 170.353 234.076 170.353C234.197 170.353 234.318 170.352 234.439 170.351L234.437 170.353H343.563V170.351Z"/>
</mask>
<path fill-rule="evenodd" clip-rule="evenodd" d="M343.563 170.351C343.683 170.352 343.804 170.353 343.924 170.353C361.087 170.353 375 156.44 375 139.277C375 122.115 361.087 108.202 343.924 108.202C343.804 108.202 343.683 108.202 343.563 108.204V108.202H335.535C335.825 106.075 335.975 103.904 335.975 101.697C335.975 75.3549 314.62 54 288.277 54C261.935 54 240.58 75.3549 240.58 101.697C240.58 104.183 240.77 106.624 241.136 109.007C238.868 108.48 236.504 108.202 234.076 108.202C216.913 108.202 203 122.115 203 139.277C203 156.44 216.913 170.353 234.076 170.353C234.197 170.353 234.318 170.352 234.439 170.351L234.437 170.353H343.563V170.351Z" fill="url(#paint5_linear_2_276)" shape-rendering="crispEdges"/>
<path d="M343.563 170.351L343.597 167.351C342.796 167.342 342.024 167.654 341.454 168.217C340.884 168.781 340.563 169.549 340.563 170.351H343.563ZM343.563 108.204H340.563C340.563 109.005 340.884 109.774 341.454 110.337C342.024 110.901 342.796 111.213 343.597 111.204L343.563 108.204ZM343.563 108.202H346.563C346.563 106.545 345.22 105.202 343.563 105.202V108.202ZM335.535 108.202L332.563 107.796C332.445 108.655 332.705 109.522 333.275 110.175C333.845 110.827 334.669 111.202 335.535 111.202V108.202ZM241.136 109.007L240.458 111.93C241.427 112.155 242.446 111.884 243.176 111.207C243.906 110.531 244.253 109.535 244.102 108.551L241.136 109.007ZM234.439 170.351L236.793 172.21C237.509 171.303 237.641 170.065 237.131 169.027C236.621 167.99 235.56 167.338 234.404 167.351L234.439 170.351ZM234.437 170.353L232.082 168.494C231.37 169.396 231.236 170.627 231.737 171.661C232.239 172.696 233.287 173.353 234.437 173.353V170.353ZM343.563 170.353V173.353C345.22 173.353 346.563 172.01 346.563 170.353H343.563ZM343.529 173.351C343.661 173.352 343.792 173.353 343.924 173.353V167.353C343.815 167.353 343.706 167.352 343.597 167.351L343.529 173.351ZM343.924 173.353C362.744 173.353 378 158.097 378 139.277H372C372 154.783 359.43 167.353 343.924 167.353V173.353ZM378 139.277C378 120.458 362.744 105.202 343.924 105.202V111.202C359.43 111.202 372 123.772 372 139.277H378ZM343.924 105.202C343.792 105.202 343.661 105.202 343.529 105.204L343.597 111.204C343.706 111.202 343.815 111.202 343.924 111.202V105.202ZM340.563 108.202V108.204H346.563V108.202H340.563ZM335.535 111.202H343.563V105.202H335.535V111.202ZM338.508 108.607C338.816 106.346 338.975 104.04 338.975 101.697H332.975C332.975 103.768 332.834 105.804 332.563 107.796L338.508 108.607ZM338.975 101.697C338.975 73.698 316.277 51 288.277 51V57C312.963 57 332.975 77.0117 332.975 101.697H338.975ZM288.277 51C260.278 51 237.58 73.698 237.58 101.697H243.58C243.58 77.0117 263.592 57 288.277 57V51ZM237.58 101.697C237.58 104.336 237.782 106.93 238.171 109.463L244.102 108.551C243.758 106.319 243.58 104.03 243.58 101.697H237.58ZM241.815 106.085C239.326 105.507 236.735 105.202 234.076 105.202V111.202C236.274 111.202 238.41 111.454 240.458 111.93L241.815 106.085ZM234.076 105.202C215.256 105.202 200 120.458 200 139.277H206C206 123.772 218.57 111.202 234.076 111.202V105.202ZM200 139.277C200 158.097 215.256 173.353 234.076 173.353V167.353C218.57 167.353 206 154.783 206 139.277H200ZM234.076 173.353C234.208 173.353 234.341 173.352 234.473 173.351L234.404 167.351C234.295 167.352 234.185 167.353 234.076 167.353V173.353ZM236.792 172.212L236.793 172.21L232.084 168.492L232.082 168.494L236.792 172.212ZM343.563 167.353H234.437V173.353H343.563V167.353ZM340.563 170.351V170.353H346.563V170.351H340.563Z" fill="url(#paint6_linear_2_276)" mask="url(#path-6-inside-2_2_276)"/>
</g>
<g filter="url(#filter3_bdd_2_276)">
<path d="M130.103 204.607C133.123 200.731 139.332 202.62 139.682 207.521L140.856 223.955C141.44 232.133 133.64 238.355 125.796 235.969C117.951 233.583 114.938 224.072 119.977 217.604L130.103 204.607Z" fill="url(#paint7_linear_2_276)" stroke="url(#paint8_linear_2_276)" stroke-width="3"/>
<path d="M187.61 204.607C190.63 200.731 196.84 202.62 197.19 207.521L198.363 223.955C198.947 232.133 191.148 238.355 183.303 235.969C175.459 233.583 172.445 224.072 177.485 217.604L187.61 204.607Z" fill="url(#paint9_linear_2_276)" stroke="url(#paint10_linear_2_276)" stroke-width="3"/>
<path d="M245.117 204.607C248.137 200.731 254.347 202.62 254.697 207.521L255.87 223.955C256.454 232.133 248.655 238.355 240.811 235.969C232.966 233.583 229.953 224.072 234.992 217.604L245.117 204.607Z" fill="url(#paint11_linear_2_276)" stroke="url(#paint12_linear_2_276)" stroke-width="3"/>
</g>
<g filter="url(#filter4_bdd_2_276)">
<path d="M145.276 250.128C148.296 246.251 154.506 248.14 154.856 253.042L156.029 269.475C156.613 277.653 148.814 283.876 140.969 281.489C133.125 279.103 130.111 269.592 135.151 263.124L145.276 250.128Z" fill="url(#paint13_linear_2_276)" stroke="url(#paint14_linear_2_276)" stroke-width="3"/>
<path d="M193.863 250.128C196.883 246.251 203.093 248.14 203.443 253.042L204.616 269.475C205.2 277.653 197.401 283.876 189.556 281.489C181.712 279.103 178.698 269.592 183.738 263.124L193.863 250.128Z" fill="url(#paint15_linear_2_276)" stroke="url(#paint16_linear_2_276)" stroke-width="3"/>
</g>
<defs>
<filter id="filter0_f_2_276" x="82" y="33" width="266" height="191" filterUnits="userSpaceOnUse" color-interpolation-filters="sRGB">
<feFlood flood-opacity="0" result="BackgroundImageFix"/>
<feBlend mode="normal" in="SourceGraphic" in2="BackgroundImageFix" result="shape"/>
<feGaussianBlur stdDeviation="7" result="effect1_foregroundBlur_2_276"/>
</filter>
<filter id="filter1_bd_2_276" x="0" y="19" width="338" height="261" filterUnits="userSpaceOnUse" color-interpolation-filters="sRGB">
<feFlood flood-opacity="0" result="BackgroundImageFix"/>
<feGaussianBlur in="BackgroundImageFix" stdDeviation="7"/>
<feComposite in2="SourceAlpha" operator="in" result="effect1_backgroundBlur_2_276"/>
<feColorMatrix in="SourceAlpha" type="matrix" values="0 0 0 0 0 0 0 0 0 0 0 0 0 0 0 0 0 0 127 0" result="hardAlpha"/>
<feOffset dx="-21" dy="15"/>
<feGaussianBlur stdDeviation="25"/>
<feComposite in2="hardAlpha" operator="out"/>
<feColorMatrix type="matrix" values="0 0 0 0 0.113725 0 0 0 0 0.14902 0 0 0 0 0.27451 0 0 0 0.25 0"/>
<feBlend mode="normal" in2="effect1_backgroundBlur_2_276" result="effect2_dropShadow_2_276"/>
<feBlend mode="normal" in="SourceGraphic" in2="effect2_dropShadow_2_276" result="shape"/>
</filter>
<filter id="filter2_bd_2_276" x="132" y="19" width="272" height="216.353" filterUnits="userSpaceOnUse" color-interpolation-filters="sRGB">
<feFlood flood-opacity="0" result="BackgroundImageFix"/>
<feGaussianBlur in="BackgroundImageFix" stdDeviation="7"/>
<feComposite in2="SourceAlpha" operator="in" result="effect1_backgroundBlur_2_276"/>
<feColorMatrix in="SourceAlpha" type="matrix" values="0 0 0 0 0 0 0 0 0 0 0 0 0 0 0 0 0 0 127 0" result="hardAlpha"/>
<feOffset dx="-21" dy="15"/>
<feGaussianBlur stdDeviation="25"/>
<feComposite in2="hardAlpha" operator="out"/>
<feColorMatrix type="matrix" values="0 0 0 0 0.113438 0 0 0 0 0.148981 0 0 0 0 0.275 0 0 0 0.25 0"/>
<feBlend mode="normal" in2="effect1_backgroundBlur_2_276" result="effect2_dropShadow_2_276"/>
<feBlend mode="normal" in="SourceGraphic" in2="effect2_dropShadow_2_276" result="shape"/>
</filter>
<filter id="filter3_bdd_2_276" x="45.002" y="153.031" width="253.399" height="149.955" filterUnits="userSpaceOnUse" color-interpolation-filters="sRGB">
<feFlood flood-opacity="0" result="BackgroundImageFix"/>
<feGaussianBlur in="BackgroundImageFix" stdDeviation="7"/>
<feComposite in2="SourceAlpha" operator="in" result="effect1_backgroundBlur_2_276"/>
<feColorMatrix in="SourceAlpha" type="matrix" values="0 0 0 0 0 0 0 0 0 0 0 0 0 0 0 0 0 0 127 0" result="hardAlpha"/>
<feOffset dx="-21" dy="15"/>
<feGaussianBlur stdDeviation="25"/>
<feComposite in2="hardAlpha" operator="out"/>
<feColorMatrix type="matrix" values="0 0 0 0 0.113438 0 0 0 0 0.148981 0 0 0 0 0.275 0 0 0 0.25 0"/>
<feBlend mode="normal" in2="effect1_backgroundBlur_2_276" result="effect2_dropShadow_2_276"/>
<feColorMatrix in="SourceAlpha" type="matrix" values="0 0 0 0 0 0 0 0 0 0 0 0 0 0 0 0 0 0 127 0" result="hardAlpha"/>
<feOffset dy="-7"/>
<feGaussianBlur stdDeviation="20.5"/>
<feComposite in2="hardAlpha" operator="out"/>
<feColorMatrix type="matrix" values="0 0 0 0 0.1375 0 0 0 0 0.74125 0 0 0 0 1 0 0 0 0.3 0"/>
<feBlend mode="normal" in2="effect2_dropShadow_2_276" result="effect3_dropShadow_2_276"/>
<feBlend mode="normal" in="SourceGraphic" in2="effect3_dropShadow_2_276" result="shape"/>
</filter>
<filter id="filter4_bdd_2_276" x="60.1754" y="198.551" width="186.972" height="149.955" filterUnits="userSpaceOnUse" color-interpolation-filters="sRGB">
<feFlood flood-opacity="0" result="BackgroundImageFix"/>
<feGaussianBlur in="BackgroundImageFix" stdDeviation="7"/>
<feComposite in2="SourceAlpha" operator="in" result="effect1_backgroundBlur_2_276"/>
<feColorMatrix in="SourceAlpha" type="matrix" values="0 0 0 0 0 0 0 0 0 0 0 0 0 0 0 0 0 0 127 0" result="hardAlpha"/>
<feOffset dx="-21" dy="15"/>
<feGaussianBlur stdDeviation="25"/>
<feComposite in2="hardAlpha" operator="out"/>
<feColorMatrix type="matrix" values="0 0 0 0 0.113438 0 0 0 0 0.148981 0 0 0 0 0.275 0 0 0 0.25 0"/>
<feBlend mode="normal" in2="effect1_backgroundBlur_2_276" result="effect2_dropShadow_2_276"/>
<feColorMatrix in="SourceAlpha" type="matrix" values="0 0 0 0 0 0 0 0 0 0 0 0 0 0 0 0 0 0 127 0" result="hardAlpha"/>
<feOffset dy="-7"/>
<feGaussianBlur stdDeviation="20.5"/>
<feComposite in2="hardAlpha" operator="out"/>
<feColorMatrix type="matrix" values="0 0 0 0 0.1375 0 0 0 0 0.74125 0 0 0 0 1 0 0 0 0.3 0"/>
<feBlend mode="normal" in2="effect2_dropShadow_2_276" result="effect3_dropShadow_2_276"/>
<feBlend mode="normal" in="SourceGraphic" in2="effect3_dropShadow_2_276" result="shape"/>
</filter>
<linearGradient id="paint0_linear_2_276" x1="244" y1="0" x2="244" y2="118" gradientUnits="userSpaceOnUse">
<stop stop-color="#FFE600"/>
<stop offset="1" stop-color="#FF7A00"/>
</linearGradient>
<linearGradient id="paint1_linear_2_276" x1="244" y1="0" x2="244" y2="118" gradientUnits="userSpaceOnUse">
<stop stop-color="white"/>
<stop offset="1" stop-color="white" stop-opacity="0"/>
</linearGradient>
<linearGradient id="paint2_linear_2_276" x1="244" y1="-3.81626e-05" x2="244" y2="118" gradientUnits="userSpaceOnUse">
<stop stop-color="#FFD600"/>
<stop offset="1" stop-color="#FF7A00"/>
</linearGradient>
<linearGradient id="paint3_linear_2_276" x1="190" y1="2.5" x2="190" y2="237.5" gradientUnits="userSpaceOnUse">
<stop stop-color="white"/>
<stop offset="1" stop-color="white" stop-opacity="0"/>
</linearGradient>
<linearGradient id="paint4_linear_2_276" x1="190" y1="54" x2="190" y2="215" gradientUnits="userSpaceOnUse">
<stop stop-color="white"/>
<stop offset="1" stop-color="white" stop-opacity="0"/>
</linearGradient>
<linearGradient id="paint5_linear_2_276" x1="297" y1="57.5" x2="297" y2="183.5" gradientUnits="userSpaceOnUse">
<stop stop-color="white"/>
<stop offset="1" stop-color="white" stop-opacity="0"/>
</linearGradient>
<linearGradient id="paint6_linear_2_276" x1="289" y1="54" x2="289" y2="170.353" gradientUnits="userSpaceOnUse">
<stop stop-color="white"/>
<stop offset="1" stop-color="white" stop-opacity="0"/>
</linearGradient>
<linearGradient id="paint7_linear_2_276" x1="139.905" y1="189.585" x2="125.359" y2="237.404" gradientUnits="userSpaceOnUse">
<stop stop-color="#138EFF"/>
<stop offset="1" stop-color="#00E0FF"/>
</linearGradient>
<linearGradient id="paint8_linear_2_276" x1="139.905" y1="189.585" x2="125.359" y2="237.404" gradientUnits="userSpaceOnUse">
<stop stop-color="white"/>
<stop offset="1" stop-color="white" stop-opacity="0"/>
</linearGradient>
<linearGradient id="paint9_linear_2_276" x1="197.413" y1="189.585" x2="182.867" y2="237.404" gradientUnits="userSpaceOnUse">
<stop stop-color="#138EFF"/>
<stop offset="1" stop-color="#00E0FF"/>
</linearGradient>
<linearGradient id="paint10_linear_2_276" x1="197.413" y1="189.585" x2="182.867" y2="237.404" gradientUnits="userSpaceOnUse">
<stop stop-color="white"/>
<stop offset="1" stop-color="white" stop-opacity="0"/>
</linearGradient>
<linearGradient id="paint11_linear_2_276" x1="254.92" y1="189.585" x2="240.374" y2="237.404" gradientUnits="userSpaceOnUse">
<stop stop-color="#138EFF"/>
<stop offset="1" stop-color="#00E0FF"/>
</linearGradient>
<linearGradient id="paint12_linear_2_276" x1="254.92" y1="189.585" x2="240.374" y2="237.404" gradientUnits="userSpaceOnUse">
<stop stop-color="white"/>
<stop offset="1" stop-color="white" stop-opacity="0"/>
</linearGradient>
<linearGradient id="paint13_linear_2_276" x1="155.079" y1="235.105" x2="140.533" y2="282.925" gradientUnits="userSpaceOnUse">
<stop stop-color="#138EFF"/>
<stop offset="1" stop-color="#00E0FF"/>
</linearGradient>
<linearGradient id="paint14_linear_2_276" x1="155.079" y1="235.105" x2="140.533" y2="282.925" gradientUnits="userSpaceOnUse">
<stop stop-color="white"/>
<stop offset="1" stop-color="white" stop-opacity="0"/>
</linearGradient>
<linearGradient id="paint15_linear_2_276" x1="203.666" y1="235.105" x2="189.12" y2="282.925" gradientUnits="userSpaceOnUse">
<stop stop-color="#138EFF"/>
<stop offset="1" stop-color="#00E0FF"/>
</linearGradient>
<linearGradient id="paint16_linear_2_276" x1="203.666" y1="235.105" x2="189.12" y2="282.925" gradientUnits="userSpaceOnUse">
<stop stop-color="white"/>
<stop offset="1" stop-color="white" stop-opacity="0"/>
</linearGradient>
</defs>
</svg>
