<svg width="149" height="149" viewBox="0 0 149 149" fill="none" xmlns="http://www.w3.org/2000/svg">
<circle cx="74.1083" cy="74.1083" r="73.1083" fill="url(#paint0_linear_2_76)" stroke="url(#paint1_linear_2_76)" stroke-width="2"/>
<mask id="mask0_2_76" style="mask-type:alpha" maskUnits="userSpaceOnUse" x="0" y="41" width="149" height="108">
<path d="M148.217 74.1084C148.217 115.037 115.037 148.217 74.1083 148.217C33.1794 148.217 0 115.037 0 74.1084C0 33.1795 27.5271 42.7066 68.456 42.7066C109.385 42.7066 148.217 33.1795 148.217 74.1084Z" fill="url(#paint2_linear_2_76)"/>
</mask>
<g mask="url(#mask0_2_76)">
<g filter="url(#filter0_f_2_76)">
<path fill-rule="evenodd" clip-rule="evenodd" d="M187.155 209.764C187.155 239.594 162.973 263.775 133.144 263.775C132.934 263.775 132.725 263.774 132.516 263.772V263.775H-57.1509L-57.1485 263.772C-57.3585 263.774 -57.5687 263.776 -57.7792 263.776C-87.6087 263.776 -111.79 239.594 -111.79 209.765C-111.79 179.935 -87.6087 155.754 -57.7792 155.754C-32.0671 155.754 -10.5513 173.72 -5.10152 197.784L13.1892 174.594L70.3405 155.753H132.516V155.757C132.725 155.754 132.934 155.753 133.144 155.753C162.973 155.753 187.155 179.935 187.155 209.764Z" fill="#E18700"/>
</g>
</g>
<defs>
<filter id="filter0_f_2_76" x="-125.79" y="141.753" width="326.945" height="136.023" filterUnits="userSpaceOnUse" color-interpolation-filters="sRGB">
<feFlood flood-opacity="0" result="BackgroundImageFix"/>
<feBlend mode="normal" in="SourceGraphic" in2="BackgroundImageFix" result="shape"/>
<feGaussianBlur stdDeviation="7" result="effect1_foregroundBlur_2_76"/>
</filter>
<linearGradient id="paint0_linear_2_76" x1="74.1083" y1="0" x2="74.1083" y2="148.217" gradientUnits="userSpaceOnUse">
<stop stop-color="#FFE600"/>
<stop offset="1" stop-color="#FF7A00"/>
</linearGradient>
<linearGradient id="paint1_linear_2_76" x1="74.1083" y1="0" x2="74.1083" y2="148.217" gradientUnits="userSpaceOnUse">
<stop stop-color="white"/>
<stop offset="1" stop-color="white" stop-opacity="0"/>
</linearGradient>
<linearGradient id="paint2_linear_2_76" x1="74.1083" y1="0.000135893" x2="74.1083" y2="148.217" gradientUnits="userSpaceOnUse">
<stop stop-color="#FFD600"/>
<stop offset="1" stop-color="#FF7A00"/>
</linearGradient>
</defs>
</svg>
