<svg width="20" height="18" viewBox="0 0 20 18" fill="none" xmlns="http://www.w3.org/2000/svg">
<path d="M8.36992 7.25457H1.91056C1.77171 7.25457 1.6343 7.22711 1.50609 7.17378C1.37788 7.12045 1.26147 7.04231 1.16358 6.94383C1.06569 6.84534 0.988108 6.72848 0.935549 6.59995C0.882991 6.47143 0.856483 6.33378 0.857319 6.19492C0.856483 6.05607 0.882991 5.91842 0.935549 5.7899C0.988108 5.66137 1.06569 5.54449 1.16358 5.44601C1.26147 5.34753 1.37788 5.26938 1.50609 5.21605C1.6343 5.16272 1.77171 5.13528 1.91056 5.13528H8.36992C8.68351 5.13528 8.98441 5.01113 9.20675 4.78998C9.42909 4.56883 9.55486 4.26866 9.55654 3.95507C9.55654 3.64037 9.43144 3.33859 9.20892 3.11606C8.9864 2.89354 8.68461 2.76852 8.36992 2.76852H6.41571C6.13467 2.76852 5.86512 2.65688 5.6664 2.45815C5.46768 2.25943 5.35595 1.98992 5.35595 1.70889C5.35595 1.42785 5.46768 1.15832 5.6664 0.959597C5.86512 0.760874 6.13467 0.649231 6.41571 0.649231H8.36992C9.24558 0.650912 10.0849 0.99995 10.7035 1.61973C11.3221 2.23952 11.6695 3.0794 11.6695 3.95507C11.6679 4.82963 11.3196 5.6679 10.7012 6.28631C10.0828 6.90473 9.24448 7.25289 8.36992 7.25457V7.25457Z" fill="#296399"/>
<path d="M16.1112 10.3066H1.91056C1.77171 10.3066 1.6343 10.2791 1.50609 10.2258C1.37788 10.1725 1.26147 10.0943 1.16358 9.99584C1.06569 9.89736 0.988108 9.78049 0.935549 9.65196C0.882991 9.52344 0.856483 9.38579 0.857319 9.24694C0.856483 9.10808 0.882991 8.97044 0.935549 8.84191C0.988108 8.71339 1.06569 8.59652 1.16358 8.49804C1.26147 8.39956 1.37788 8.3214 1.50609 8.26807C1.6343 8.21474 1.77171 8.18729 1.91056 8.18729H16.1112C16.4618 8.1873 16.798 8.04845 17.0465 7.80112C17.295 7.55379 17.4355 7.21811 17.4372 6.86749C17.4355 6.51688 17.295 6.1812 17.0465 5.93387C16.798 5.68654 16.4618 5.54769 16.1112 5.54769H14.2964C14.0153 5.54769 13.7458 5.43605 13.5471 5.23733C13.3483 5.03861 13.2368 4.76908 13.2368 4.48804C13.2368 4.34889 13.2641 4.2111 13.3173 4.08254C13.3706 3.95398 13.4487 3.83717 13.5471 3.73877C13.6455 3.64037 13.7623 3.56231 13.8908 3.50906C14.0194 3.4558 14.1572 3.42841 14.2964 3.42841H16.1428C16.5944 3.42841 17.0416 3.51736 17.4589 3.69019C17.8761 3.86302 18.2552 4.11633 18.5746 4.43568C18.8939 4.75503 19.1473 5.13416 19.3202 5.55141C19.493 5.96866 19.582 6.41587 19.582 6.86749C19.582 7.3218 19.4919 7.77161 19.3171 8.19094C19.1423 8.61027 18.8861 8.99081 18.5634 9.31058C18.2407 9.63034 17.8578 9.88301 17.4369 10.054C17.016 10.2249 16.5655 10.3108 16.1112 10.3066V10.3066Z" fill="#296399"/>
<path d="M10.3814 17.9208H7.69745C7.41641 17.9208 7.14686 17.8092 6.94814 17.6105C6.74942 17.4117 6.63769 17.1422 6.63769 16.8612C6.63769 16.7223 6.66523 16.5848 6.71856 16.4566C6.77189 16.3284 6.84997 16.212 6.94845 16.1141C7.04693 16.0162 7.16383 15.9388 7.29235 15.8862C7.42088 15.8337 7.55859 15.807 7.69745 15.8079H10.3814C10.7051 15.8062 11.0149 15.6764 11.2432 15.447C11.4715 15.2175 11.5997 14.907 11.5997 14.5833C11.5997 14.2602 11.4714 13.9503 11.2429 13.7218C11.0144 13.4933 10.7046 13.365 10.3814 13.365H1.91056C1.63121 13.365 1.36328 13.254 1.16575 13.0565C0.968216 12.859 0.857319 12.591 0.857319 12.3117C0.856483 12.1728 0.882991 12.0352 0.935549 11.9067C0.988108 11.7781 1.06569 11.6613 1.16358 11.5628C1.26147 11.4643 1.37788 11.3862 1.50609 11.3328C1.6343 11.2795 1.77171 11.252 1.91056 11.252H10.3814C11.2655 11.252 12.1135 11.6028 12.7392 12.2273C13.3649 12.8519 13.7173 13.6992 13.719 14.5833C13.7173 15.4679 13.3651 16.3159 12.7395 16.9414C12.114 17.567 11.2661 17.9192 10.3814 17.9208V17.9208Z" fill="#296399"/>
</svg>
